<?xml version='1.0' encoding='utf-8'?>
<!DOCTYPE svg PUBLIC '-//W3C//DTD SVG 1.1//EN' 'http://www.w3.org/Graphics/SVG/1.1/DTD/svg11.dtd'>
<svg version="1.1" xmlns="http://www.w3.org/2000/svg" viewBox="0 0 512 512" xmlns:xlink="http://www.w3.org/1999/xlink" enable-background="new 0 0 512 512">
  <g>
    <path d="m388.2,124.6c-9.6-64.9-64.8-113.6-132.2-113.6-67.4,0-122.6,48.7-132.2,113.6-40.9,11.6-70,48.9-70,92.9 0,53.2 43.3,96.6 96.6,96.6 19,0 37.2-5.5 52.8-15.8 9.9,6.5 20.9,11.1 32.4,13.6v168.7c0,11.3 9.1,20.4 20.4,20.4 11.3,0 20.4-9.1 20.4-20.4v-168.8c11.5-2.5 22.5-7.1 32.4-13.6 15.6,10.3 33.8,15.8 52.8,15.8 53.2,0 96.6-43.3 96.6-96.6 5.68434e-14-43.9-29.1-81.3-70-92.8zm-26.5,148.6c-14.5,0-28.2-5.6-38.7-15.7-4-3.8-17.1-10.2-28.3,0-10.8,9.8-24.2,15.7-38.6,15.7-14.5,0-28.2-5.6-38.6-15.7-7.9-7.6-20.4-7.6-28.4,0-10.5,10.1-24.2,15.7-38.7,15.7-30.7,0-55.7-25-55.7-55.7 0-28.8 21.6-52.6 50.1-55.4 10.2-1 18.1-9.5 18.4-19.8 1.4-50.7 42.1-90.4 92.9-90.4 50.7,0 91.5,39.7 92.9,90.4 0.3,10.3 8.2,18.8 18.4,19.8 28.6,2.8 50.1,26.7 50.1,55.4-0.1,30.7-25.1,55.7-55.8,55.7z"/>
  </g>
</svg>
